<svg width="360" height="360" viewBox="0 0 360 360" fill="none" xmlns="http://www.w3.org/2000/svg">
<g clip-path="url(#clip0_1541_5030)">
<circle cx="180" cy="180" r="180" fill="black"/>
<g clip-path="url(#clip1_1541_5030)">
<path d="M149.916 112.902L154.164 126.654H167.916L156.792 135.15L161.04 148.902L149.916 140.406L138.792 148.902L143.04 135.15L131.916 126.654H145.668L149.916 112.902Z" fill="white"/>
<path d="M210.696 112.902L214.944 126.654H228.696L217.572 135.15L221.82 148.902L210.696 140.406L199.572 148.902L203.82 135.15L192.696 126.654H206.448L210.696 112.902Z" fill="white"/>
<path d="M179.91 211.098L184.158 224.85H197.91L186.786 233.346L191.034 247.098L179.91 238.602L168.786 247.098L173.034 233.346L161.91 224.85H175.662L179.91 211.098Z" fill="white"/>
<path d="M228.888 173.61L233.136 187.362H246.888L235.764 195.858L240.012 209.61L228.888 201.114L217.764 209.61L222.012 195.858L210.888 187.362H224.64L228.888 173.61Z" fill="white"/>
<path d="M131.112 173.772L135.36 187.524H149.112L137.988 196.02L142.236 209.772L131.112 201.276L119.988 209.772L124.236 196.02L113.112 187.524H126.864L131.112 173.772Z" fill="white"/>
<path d="M179.91 116.892L192.66 158.142H233.91L200.538 183.636L213.288 224.886L179.916 199.392L146.544 224.886L159.294 183.636L125.922 158.142H167.172L179.922 116.892H179.91Z" fill="white"/>
<path d="M256.902 224.742H102.816V226.542H256.902V224.742Z" fill="white"/>
<path d="M209.681 93.7403L89.7129 185.363L90.8054 186.794L210.773 95.1708L209.681 93.7403Z" fill="white"/>
<path d="M114.22 118.188L112.5 118.719L158.308 266.976L160.028 266.445L114.22 118.188Z" fill="white"/>
<path d="M245.156 117.83L199.654 266.657L201.376 267.184L246.877 118.356L245.156 117.83Z" fill="white"/>
<path d="M150.137 93.8082L149.044 95.2385L269.187 187.028L270.279 185.598L150.137 93.8082Z" fill="white"/>
<path d="M99.9629 137.989L98.8701 139.419L239.424 246.803L240.516 245.373L99.9629 137.989Z" fill="white"/>
<path d="M187.73 89.2444L135.618 257.696L137.338 258.228L189.45 89.7764L187.73 89.2444Z" fill="white"/>
<path d="M172.169 89.2485L170.448 89.7781L222.318 258.279L224.038 257.75L172.169 89.2485Z" fill="white"/>
<path d="M259.756 137.947L119.269 245.397L120.362 246.827L260.85 139.377L259.756 137.947Z" fill="white"/>
<path d="M92.214 157.684L92.21 159.484L267.602 159.882L267.606 158.082L92.214 157.684Z" fill="white"/>
<path d="M180 272.802C128.832 272.802 87.1982 231.174 87.1982 180C87.1982 128.826 128.832 87.198 180 87.198C231.168 87.198 272.802 128.826 272.802 180C272.802 231.174 231.174 272.802 180 272.802ZM180 94.338C132.768 94.338 94.3382 132.768 94.3382 180C94.3382 227.232 132.768 265.662 180 265.662C227.232 265.662 265.662 227.232 265.662 180C265.662 132.768 227.232 94.338 180 94.338Z" fill="white"/>
<path d="M180 37.2C199.284 37.2 217.98 40.974 235.584 48.42C252.588 55.614 267.858 65.91 280.974 79.026C294.09 92.142 304.386 107.418 311.58 124.416C319.026 142.014 322.8 160.716 322.8 180C322.8 199.284 319.026 217.98 311.58 235.584C304.386 252.588 294.09 267.858 280.974 280.974C267.858 294.09 252.582 304.386 235.584 311.58C217.986 319.026 199.284 322.8 180 322.8C160.716 322.8 142.02 319.026 124.416 311.58C107.412 304.386 92.142 294.09 79.026 280.974C65.91 267.858 55.614 252.582 48.42 235.584C40.974 217.986 37.2 199.284 37.2 180C37.2 160.716 40.974 142.02 48.42 124.416C55.614 107.412 65.91 92.142 79.026 79.026C92.142 65.91 107.418 55.614 124.416 48.42C142.014 40.974 160.716 37.2 180 37.2ZM180 30C97.158 30 30 97.158 30 180C30 262.842 97.158 330 180 330C262.842 330 330 262.842 330 180C330 97.158 262.842 30 180 30Z" fill="white"/>
<path d="M298.2 186C301.514 186 304.2 183.314 304.2 180C304.2 176.686 301.514 174 298.2 174C294.886 174 292.2 176.686 292.2 180C292.2 183.314 294.886 186 298.2 186Z" fill="white"/>
<path d="M62.9702 186C66.2839 186 68.9702 183.314 68.9702 180C68.9702 176.686 66.2839 174 62.9702 174C59.6565 174 56.9702 176.686 56.9702 180C56.9702 183.314 59.6565 186 62.9702 186Z" fill="white"/>
<path d="M283.83 197.52L309.156 203.574L305.496 218.88L302.364 218.13L305.208 206.226L297.246 204.324L294.66 215.142L291.582 214.404L294.168 203.586L283.008 200.916L283.824 197.514L283.83 197.52Z" fill="white"/>
<path d="M273.12 227.424C274.002 225.69 275.13 224.238 276.498 223.074C277.866 221.904 279.378 221.052 281.028 220.518C282.678 219.984 284.394 219.786 286.17 219.93C287.952 220.074 289.698 220.578 291.408 221.454C293.13 222.33 294.57 223.452 295.734 224.808C296.892 226.164 297.738 227.67 298.278 229.32C298.812 230.97 299.01 232.692 298.86 234.48C298.71 236.268 298.194 238.032 297.312 239.766C296.436 241.476 295.314 242.916 293.946 244.074C292.572 245.232 291.054 246.084 289.386 246.624C287.718 247.164 285.996 247.368 284.22 247.236C282.444 247.104 280.71 246.606 279.018 245.742C277.308 244.866 275.874 243.75 274.716 242.388C273.558 241.026 272.718 239.514 272.184 237.852C271.65 236.19 271.458 234.462 271.596 232.68C271.734 230.898 272.244 229.14 273.114 227.43L273.12 227.424ZM276.084 228.936C275.454 230.172 275.076 231.444 274.956 232.746C274.836 234.048 274.968 235.308 275.358 236.52C275.748 237.732 276.39 238.86 277.284 239.892C278.178 240.924 279.306 241.794 280.68 242.49C282.51 243.426 284.316 243.846 286.092 243.75C287.868 243.654 289.476 243.126 290.916 242.172C292.356 241.218 293.502 239.91 294.348 238.254C294.984 237.006 295.362 235.734 295.482 234.438C295.602 233.142 295.464 231.882 295.08 230.664C294.69 229.446 294.054 228.318 293.166 227.298C292.278 226.272 291.138 225.408 289.758 224.706C287.922 223.77 286.122 223.35 284.346 223.44C282.57 223.53 280.968 224.058 279.522 225.018C278.076 225.978 276.936 227.292 276.09 228.948L276.084 228.936Z" fill="white"/>
<path d="M264.726 242.694L284.298 259.872L277.968 267.084C276.804 268.41 275.568 269.346 274.248 269.898C272.928 270.45 271.614 270.612 270.294 270.384C268.974 270.156 267.726 269.532 266.556 268.5C265.578 267.642 264.906 266.67 264.534 265.584C264.162 264.504 264.084 263.358 264.288 262.152C264.492 260.946 264.984 259.758 265.746 258.582L251.928 257.268L254.748 254.052L267.924 255.42L270.54 252.444L262.416 245.316L264.72 242.688L264.726 242.694ZM272.79 254.424L269.208 258.504C268.014 259.866 267.378 261.18 267.3 262.458C267.222 263.73 267.714 264.834 268.776 265.77C269.886 266.742 271.05 267.174 272.274 267.06C273.498 266.946 274.704 266.208 275.898 264.846L279.714 260.496L272.796 254.424H272.79Z" fill="white"/>
<path d="M249.522 259.86L264.018 281.49L261.192 283.386L242.382 274.83L243.492 274.086L244.566 294.528L241.818 296.37L227.322 274.74L230.166 272.832L241.98 290.526L241.272 290.706L240.54 272.904L242.778 271.404L259.056 278.79L258.744 279.288L246.864 261.636L249.522 259.854V259.86Z" fill="white"/>
<path d="M225.06 275.688L223.638 303.636L220.2 304.794L201.894 283.47L205.632 282.216L210.156 287.562L221.16 283.866L221.43 276.906L225.06 275.688ZM221.196 287.088L212.1 290.142L220.614 300.072L221.196 287.082V287.088Z" fill="white"/>
<path d="M190.566 284.928L190.806 310.968L182.922 311.04C180.366 311.064 178.104 310.53 176.13 309.438C174.156 308.346 172.602 306.822 171.468 304.866C170.334 302.91 169.758 300.66 169.734 298.122C169.716 296.226 170.022 294.474 170.646 292.878C171.27 291.276 172.158 289.896 173.316 288.732C174.468 287.568 175.848 286.656 177.438 286.008C179.034 285.354 180.786 285.018 182.694 285L190.578 284.928H190.566ZM187.098 288.216L183.282 288.252C181.77 288.264 180.408 288.504 179.19 288.966C177.972 289.428 176.928 290.088 176.058 290.946C175.188 291.804 174.516 292.83 174.048 294.03C173.58 295.23 173.358 296.58 173.37 298.08C173.388 300.078 173.82 301.8 174.666 303.258C175.512 304.716 176.682 305.838 178.182 306.618C179.682 307.404 181.446 307.788 183.468 307.77L187.284 307.734L187.104 288.204L187.098 288.216Z" fill="white"/>
<path d="M165.324 284.016L161.28 309.738L157.824 309.198L161.868 283.476L165.324 284.022V284.016Z" fill="white"/>
<path d="M143.94 278.094C145.914 278.766 147.624 279.69 149.088 280.866C150.546 282.042 151.704 283.398 152.562 284.94C153.42 286.482 153.918 288.156 154.056 289.962C154.2 291.768 153.942 293.634 153.276 295.572C152.61 297.522 151.68 299.172 150.48 300.522C149.286 301.878 147.894 302.916 146.316 303.648C144.738 304.38 143.034 304.776 141.204 304.83C139.374 304.884 137.496 304.584 135.558 303.924C134.664 303.618 133.794 303.24 132.942 302.784C132.09 302.328 131.286 301.794 130.542 301.188C129.792 300.576 129.138 299.886 128.58 299.1L130.956 296.982C131.676 297.87 132.516 298.638 133.488 299.292C134.46 299.946 135.498 300.462 136.614 300.84C138.102 301.35 139.536 301.59 140.91 301.554C142.284 301.518 143.55 301.224 144.708 300.672C145.866 300.12 146.886 299.316 147.762 298.266C148.638 297.216 149.334 295.938 149.85 294.438C150.564 292.35 150.732 290.418 150.354 288.648C149.976 286.872 149.136 285.33 147.84 284.022C146.538 282.714 144.858 281.706 142.788 280.998C141.72 280.632 140.736 280.41 139.83 280.332C138.924 280.254 138.186 280.266 137.616 280.374L135.402 286.848L141.174 288.822L140.214 291.636L131.43 288.63L135.246 277.47C136.008 277.242 136.914 277.134 137.976 277.134C139.038 277.134 140.1 277.23 141.174 277.41C142.248 277.596 143.166 277.818 143.94 278.082V278.094Z" fill="white"/>
<path d="M131.022 272.928L118.47 295.746L115.404 294.06L127.956 271.248L131.022 272.934V272.928Z" fill="white"/>
<path d="M118.56 265.176L104.88 283.446L110.85 287.916L108.924 290.49L94.1816 279.456L96.1076 276.882L102.078 281.352L115.758 263.082L118.56 265.176Z" fill="white"/>
<path d="M110.514 259.656L84.3478 269.58L81.9058 266.898L94.0738 241.566L96.7258 244.482L93.6478 250.776L101.454 259.368L107.934 256.824L110.508 259.662L110.514 259.656ZM98.5198 260.7L92.0638 253.596L86.3878 265.386L98.5138 260.7H98.5198Z" fill="white"/>
<path d="M92.9098 239.016L70.4998 252.276L68.7178 249.264L88.3618 237.642L82.4338 227.622L85.2058 225.984L92.9158 239.016H92.9098Z" fill="white"/>
<path d="M83.8197 222.18L59.8017 232.242L58.4517 229.014L82.4697 218.952L83.8197 222.18Z" fill="white"/>
<path d="M78.6359 205.194C79.0559 206.892 79.2359 208.608 79.1639 210.342C79.0919 212.076 78.7499 213.612 78.1319 214.938L75.0539 213.882C75.4139 213.126 75.6779 212.31 75.8399 211.422C76.0019 210.54 76.0679 209.628 76.0379 208.686C76.0079 207.75 75.8819 206.82 75.6539 205.908C75.2099 204.126 74.5019 202.776 73.5299 201.858C72.5579 200.94 71.3999 200.646 70.0499 200.982C69.0659 201.228 68.3219 201.804 67.8239 202.704C67.3259 203.604 67.0379 205.116 66.9479 207.234L66.8399 210.174C66.7439 212.664 66.2819 214.578 65.4539 215.916C64.6259 217.254 63.3779 218.13 61.7159 218.544C60.6119 218.82 59.5559 218.85 58.5539 218.634C57.5519 218.418 56.6339 217.98 55.7879 217.332C54.9419 216.684 54.2159 215.844 53.6039 214.83C52.9919 213.81 52.5239 212.646 52.1999 211.338C51.7979 209.712 51.6539 208.14 51.7739 206.622C51.8939 205.104 52.2359 203.79 52.8059 202.674L55.7879 203.79C55.4639 204.444 55.2239 205.164 55.0679 205.944C54.9119 206.724 54.8459 207.534 54.8699 208.368C54.8939 209.208 55.0079 210.036 55.2119 210.852C55.4819 211.95 55.8899 212.874 56.4179 213.63C56.9519 214.386 57.5819 214.92 58.3139 215.226C59.0459 215.538 59.8559 215.58 60.7439 215.358C61.3679 215.202 61.8839 214.914 62.2799 214.494C62.6819 214.074 62.9879 213.444 63.1979 212.598C63.4079 211.752 63.5459 210.624 63.5999 209.22L63.7379 206.082C63.8399 203.664 64.2959 201.798 65.1119 200.466C65.9279 199.14 67.2059 198.258 68.9519 197.82C70.4219 197.454 71.8019 197.49 73.0919 197.928C74.3819 198.366 75.5099 199.194 76.4699 200.412C77.4299 201.63 78.1559 203.22 78.6419 205.182L78.6359 205.194Z" fill="white"/>
<path d="M78.528 152.076L52.416 142.782L54.618 136.59L75.078 143.874L78.81 133.392L84.462 135.402L78.528 152.076Z" fill="white"/>
<path d="M93.186 122.04C92.004 123.81 90.606 125.238 88.998 126.336C87.384 127.434 85.668 128.172 83.844 128.544C82.02 128.916 80.178 128.928 78.306 128.562C76.44 128.196 74.658 127.446 72.954 126.306C71.244 125.16 69.858 123.798 68.808 122.214C67.758 120.63 67.056 118.92 66.702 117.096C66.354 115.266 66.378 113.4 66.78 111.492C67.182 109.584 67.974 107.748 69.15 105.984C70.332 104.214 71.73 102.792 73.344 101.7C74.958 100.614 76.686 99.8819 78.522 99.5039C80.358 99.1259 82.212 99.1199 84.072 99.4859C85.932 99.8459 87.702 100.59 89.382 101.712C91.086 102.846 92.46 104.208 93.516 105.792C94.566 107.376 95.268 109.086 95.616 110.922C95.964 112.758 95.94 114.624 95.544 116.532C95.154 118.434 94.368 120.276 93.186 122.04ZM88.05 118.608C88.68 117.666 89.106 116.688 89.322 115.668C89.538 114.654 89.544 113.652 89.334 112.656C89.124 111.66 88.704 110.718 88.074 109.824C87.438 108.93 86.604 108.138 85.56 107.442C84.168 106.512 82.764 105.984 81.348 105.87C79.932 105.75 78.618 105.996 77.388 106.608C76.164 107.22 75.126 108.156 74.286 109.416C73.656 110.358 73.23 111.342 73.014 112.356C72.798 113.37 72.792 114.372 73.002 115.362C73.212 116.352 73.632 117.294 74.256 118.188C74.88 119.082 75.72 119.88 76.776 120.588C78.168 121.518 79.572 122.046 80.988 122.16C82.404 122.28 83.724 122.028 84.954 121.416C86.184 120.798 87.216 119.868 88.05 118.614V118.608Z" fill="white"/>
<path d="M112.632 100.296C110.646 101.976 108.648 102.99 106.638 103.338C104.628 103.686 102.696 103.464 100.848 102.666C99 101.868 97.32 100.578 95.814 98.79L85.29 86.322L90.312 82.08L100.992 94.728C102.21 96.168 103.476 96.942 104.784 97.038C106.092 97.134 107.382 96.648 108.654 95.574C109.914 94.512 110.604 93.33 110.718 92.034C110.832 90.738 110.28 89.37 109.062 87.924L98.382 75.276L103.434 71.01L113.958 83.478C115.458 85.254 116.442 87.12 116.922 89.076C117.396 91.032 117.3 92.976 116.622 94.902C115.944 96.828 114.618 98.628 112.638 100.296H112.632Z" fill="white"/>
<path d="M126 89.9461L112.482 65.7421L118.224 62.5381L131.742 86.7361L126 89.9401V89.9461Z" fill="white"/>
<path d="M136.452 84.0479L127.242 57.9059L145.62 51.4319L147.516 56.8079L135.342 61.0979L137.052 65.9519L147.27 62.3519L149.022 67.3199L138.804 70.9199L140.748 76.4279L153.072 72.0839L154.986 77.5199L136.458 84.0479H136.452Z" fill="white"/>
<path d="M167.076 74.694L167.718 46.98L174.036 47.124L184.158 64.848L181.548 64.806L191.97 47.538L198.264 47.682L197.622 75.396L191.25 75.246L191.814 55.932L192.972 56.394L184.656 69.888L180.282 69.786L172.284 55.914L173.424 55.506L173.094 74.826L167.076 74.688V74.694Z" fill="white"/>
<path d="M214.302 81.4081C212.292 80.7121 210.558 79.7221 209.088 78.4381C207.618 77.1541 206.472 75.6781 205.644 74.0101C204.816 72.3421 204.348 70.5601 204.228 68.6581C204.108 66.7621 204.384 64.8421 205.056 62.9101C205.728 60.9661 206.7 59.2801 207.966 57.8641C209.232 56.4421 210.708 55.3321 212.388 54.5341C214.068 53.7361 215.88 53.2861 217.83 53.1901C219.774 53.0941 221.754 53.3941 223.764 54.0901C225.774 54.7861 227.508 55.7761 228.966 57.0661C230.424 58.3561 231.57 59.8381 232.398 61.5241C233.226 63.2101 233.7 64.9981 233.82 66.8881C233.94 68.7781 233.67 70.6801 233.01 72.5881C232.338 74.5201 231.372 76.2001 230.106 77.6161C228.84 79.0381 227.364 80.1421 225.678 80.9461C223.992 81.7441 222.174 82.1941 220.236 82.2961C218.292 82.3981 216.318 82.1041 214.308 81.4081H214.302ZM216.324 75.5701C217.398 75.9421 218.448 76.1041 219.486 76.0561C220.524 76.0081 221.496 75.7621 222.408 75.3061C223.32 74.8561 224.124 74.2081 224.826 73.3681C225.528 72.5281 226.086 71.5201 226.494 70.3321C227.04 68.7481 227.196 67.2601 226.95 65.8621C226.71 64.4641 226.134 63.2521 225.234 62.2201C224.334 61.1881 223.164 60.4261 221.73 59.9281C220.656 59.5561 219.6 59.3941 218.568 59.4421C217.53 59.4901 216.564 59.7421 215.658 60.1921C214.752 60.6481 213.948 61.2901 213.24 62.1241C212.532 62.9521 211.974 63.9661 211.56 65.1661C211.014 66.7501 210.858 68.2381 211.104 69.6361C211.35 71.0341 211.92 72.2461 212.826 73.2841C213.732 74.3161 214.896 75.0781 216.318 75.5701H216.324Z" fill="white"/>
<path d="M231.006 87.636L246.72 64.8L255.984 71.178C257.682 72.348 258.972 73.644 259.854 75.066C260.742 76.494 261.168 77.964 261.144 79.476C261.12 80.988 260.604 82.4821 259.59 83.9461C258.816 85.0681 257.928 85.902 256.92 86.46C255.912 87.018 254.844 87.3241 253.71 87.3901C252.576 87.4501 251.448 87.3 250.326 86.928L249.93 100.668L243.504 96.2461L244.194 84.342L242.19 82.962L236.406 91.362L230.994 87.636H231.006ZM245.19 78.624L248.388 80.826C249.522 81.606 250.554 81.99 251.496 81.984C252.438 81.978 253.242 81.4921 253.896 80.5381C254.574 79.5481 254.772 78.612 254.49 77.736C254.202 76.86 253.5 76.0321 252.384 75.2641L249.072 72.984L245.19 78.6301V78.624Z" fill="white"/>
<path d="M249.726 100.224L277.422 89.802L282.432 95.544L268.422 121.644L263.55 116.064L266.484 110.904L259.95 103.416L254.466 105.654L249.726 100.224ZM265.074 100.92L269.628 106.14L274.554 97.212L265.068 100.914L265.074 100.92Z" fill="white"/>
<path d="M268.89 124.032L292.788 109.992L296.118 115.662L272.22 129.702L268.89 124.032Z" fill="white"/>
<path d="M277.878 143.628C277.14 141.666 276.708 139.644 276.594 137.562C276.474 135.486 276.726 133.596 277.338 131.898L283.032 133.08C282.654 133.842 282.414 134.724 282.312 135.72C282.21 136.716 282.222 137.736 282.354 138.78C282.486 139.824 282.72 140.796 283.062 141.696C283.536 142.956 284.136 143.91 284.868 144.552C285.594 145.194 286.368 145.362 287.184 145.056C287.85 144.804 288.3 144.306 288.534 143.556C288.768 142.806 288.804 141.57 288.654 139.854L288.426 137.4C288.156 134.442 288.45 132.132 289.296 130.482C290.142 128.832 291.474 127.662 293.292 126.978C294.45 126.54 295.614 126.384 296.784 126.498C297.948 126.618 299.064 126.99 300.12 127.614C301.176 128.238 302.136 129.078 302.982 130.134C303.828 131.19 304.524 132.426 305.058 133.848C305.796 135.81 306.198 137.742 306.264 139.644C306.33 141.546 306.06 143.19 305.46 144.588L299.88 143.262C300.198 142.608 300.414 141.864 300.522 141.03C300.63 140.196 300.636 139.338 300.54 138.444C300.444 137.55 300.24 136.686 299.928 135.858C299.622 135.042 299.244 134.37 298.8 133.848C298.356 133.326 297.876 132.966 297.366 132.768C296.856 132.57 296.328 132.576 295.782 132.78C295.362 132.936 295.056 133.2 294.858 133.56C294.66 133.92 294.546 134.454 294.516 135.15C294.48 135.846 294.504 136.764 294.582 137.91L294.768 140.424C294.99 143.376 294.738 145.662 294.006 147.288C293.28 148.914 291.978 150.084 290.1 150.792C288.456 151.41 286.848 151.536 285.282 151.164C283.71 150.798 282.288 149.976 281.004 148.704C279.72 147.432 278.682 145.74 277.89 143.628H277.878Z" fill="white"/>
</g>
</g>
<defs>
<clipPath id="clip0_1541_5030">
<rect width="360" height="360" fill="white"/>
</clipPath>
<clipPath id="clip1_1541_5030">
<rect width="300" height="300" fill="white" transform="translate(30 30)"/>
</clipPath>
</defs>
</svg>
