<svg width="180" height="180" viewBox="0 0 180 180" fill="none" xmlns="http://www.w3.org/2000/svg">
<g clip-path="url(#clip0_1541_5030)">
<circle cx="90" cy="90" r="90" fill="black"/>
<path d="M166.664 137.067H13.062V138.888H166.664V137.067Z" fill="white"/>
<path d="M119.591 4.54785L0 97.2319L1.0891 98.679L120.681 5.99493L119.591 4.54785Z" fill="white"/>
<path d="M24.4302 29.2789L22.7158 29.8164L68.38 179.79L70.0944 179.252L24.4302 29.2789Z" fill="white"/>
<path d="M154.955 28.9164L109.596 179.468L111.312 180L156.671 29.4488L154.955 28.9164Z" fill="white"/>
<path d="M60.2344 4.61658L59.145 6.06348L178.911 98.9161L180 97.4692L60.2344 4.61658Z" fill="white"/>
<path d="M10.2178 49.3092L9.12842 50.7561L149.241 159.383L150.33 157.936L10.2178 49.3092Z" fill="white"/>
<path d="M97.7098 0.000152478L45.7612 170.402L47.4754 170.94L99.424 0.538288L97.7098 0.000152478Z" fill="white"/>
<path d="M82.1969 0.00408921L80.4819 0.539795L132.189 170.992L133.904 170.457L82.1969 0.00408921Z" fill="white"/>
<path d="M169.51 49.267L29.4629 157.961L30.553 159.407L170.6 50.7133L169.51 49.267Z" fill="white"/>
<path d="M2.49333 69.2319L2.48926 71.0527L177.33 71.4553L177.334 69.6345L2.49333 69.2319Z" fill="white"/>
<path d="M60.0143 23.9316L64.249 37.8429H77.9578L66.8687 46.4373L71.1034 60.3486L60.0143 51.7542L48.9252 60.3486L53.1599 46.4373L42.0708 37.8429H55.7796L60.0143 23.9316Z" fill="white"/>
<path d="M120.603 23.9316L124.838 37.8429H138.547L127.458 46.4373L131.692 60.3486L120.603 51.7542L109.514 60.3486L113.749 46.4373L102.66 37.8429H116.368L120.603 23.9316Z" fill="white"/>
<path d="M89.9137 123.265L94.1484 137.176H107.857L96.7681 145.771L101.003 159.682L89.9137 151.087L78.8246 159.682L83.0593 145.771L71.9702 137.176H85.679L89.9137 123.265Z" fill="white"/>
<path d="M138.738 85.3428L142.973 99.254H156.681L145.592 107.848L149.827 121.76L138.738 113.165L127.649 121.76L131.884 107.848L120.794 99.254H134.503L138.738 85.3428Z" fill="white"/>
<path d="M41.2692 85.5066L45.5038 99.4179H59.2127L48.1236 108.012L52.3583 121.924L41.2692 113.329L30.1801 121.924L34.4148 108.012L23.3257 99.4179H37.0345L41.2692 85.5066Z" fill="white"/>
<path d="M89.9137 27.9678L102.624 69.6955H143.744L110.477 95.4847L123.187 137.212L89.9197 111.423L56.6525 137.212L69.3625 95.4847L36.0952 69.6955H77.2157L89.9257 27.9678H89.9137Z" fill="white"/>
</g>
<defs>
<clipPath id="clip0_1541_5030">
<rect width="180" height="180" fill="white"/>
</clipPath>
</defs>
</svg>
